# xmcd
#
# Track frame offsets:
# 150
# 22430
# 41467
# 60340
# 82015
# 104302
# 119485
# 143337
# 159982
# 179655
# 209732
# 222510
# 233685
# 253145
# 270482
#
# Disc length: 3940 seconds
#
#
# Revision: 0
# Processed by: cddbd v1.5.2PL0 Copyright (c) Steve Scherf et al.
# Submitted via: FreeRIP 2.96 
#
DISCID=dc0f620f
DTITLE=Ana Carolina and Seu Jorge - Ana and Jorge 
DYEAR=2005
DGENRE=Musical
TTITLE0=São Gonça
TTITLE1=Problema Social
TTITLE2=Zé do Caroço
TTITLE3=Carolina
TTITLE4=Comparsas
TTITLE5=Tanta Saudade
TTITLE6=É Isso Aí
TTITLE7=Prá Rua me Lembrar
TTITLE8=Chatterton
TTITLE9=Beatriz
TTITLE10=Brasil Corrupção
TTITLE11=Mais que Isso
TTITLE12=Garganta
TTITLE13=Vestido Estampado
TTITLE14=O Beat da Beata
EXTD=
EXTT0=
EXTT1=
EXTT2=
EXTT3=
EXTT4=O Pequenez e o Pit Bull
EXTT5=
EXTT6=(the blower's daughter)
EXTT7=
EXTT8=
EXTT9=
EXTT10=(unimultiplicidade)
EXTT11=
EXTT12=
EXTT13=
EXTT14=
PLAYORDER=
